<?xml version="1.0" encoding="UTF-8"?>
<svg id="Layer_1" xmlns="http://www.w3.org/2000/svg" version="1.1" viewBox="0 0 1048 388">
  <!-- Generator: Adobe Illustrator 29.0.1, SVG Export Plug-In . SVG Version: 2.1.0 Build 192)  -->
  <defs>
    <style>
      .st0 {
        fill: #fff;
      }
    </style>
  </defs>
  <g id="Word_Mark_-_Horiz">
    <path id="Path_1821" class="st0" d="M123.7,258.8c77.1-15.4,94.4-115,38.2-138.1,48.6-28,39.5-94-11.8-83.8-14.1,2.8-29,16.1-36.6,38.8l-45.5,133.9c-1.8,5.7-4.2,11.3-7,16.6-22.8-21-24.9-58.7-3.1-79.8l-13-11.1c-47.2,45.3-11.5,141.5,78.8,123.5M137.2,76.2c12.4-36.2,40.3-21.9,32.2,4.9-6.2,20.6-19.7,29.2-45.9,34.9l13.7-39.9ZM89.5,216.7l28.4-83.8,7.1-.6c63,.6,56.7,94.4-5.8,106.9-12.9,2.9-26.3,2.4-39-1.5,3.7-6.7,6.8-13.7,9.2-20.9"/>
    <path id="Path_1823" class="st0" d="M683.7,119.3l-21.3,4.3,26.9-79.6h.2c0,0-17.9-20-17.9-20-21.4,19.2-48.1,22.5-73.9,27.6-28.5,5.7-61.3,23.3-55,55.1.3,1.5.6,3,1.1,4.4l22.1-4.4-.3-1.7c-4-20.1,20.1-31.1,48.9-36.8,16.6-3.3,34.1-5,47-13.8l-25.1,74.4-24.8,4.9-4.2,13.7,24.6-4.9-17,50.6c-9.5,28.5-28.3,42.8-46.7,46.4-20.8,4.2-40.6-5.8-44.4-24.9-4.1-20.6,10.5-39.2,31.1-43.3l-3.9-19.6c-31,6.2-54.4,36.4-48,68.1,5.8,29,36.6,47.6,69.8,41,25.5-5.1,51.7-25.3,66-67.3l19-56.1,21.8-4.4,4.2-13.7Z"/>
    <path id="Path_1822" class="st0" d="M490.4,111.9l-1.3,2.3c-14.3,25.3-34.7,47.1-52.8,50.8-15.9,3.2-27.3-4.9-19.5-28.1l1.6-5c18,3.6,48.6-5.8,61.3-43.2l2.4-7.2c9.1-26.6-7.8-41.8-28.9-37.6-20.8,4.2-35.3,18.4-42.4,39.4l-16.4,47.8-1.2,2.1c-14.3,25.3-29,46-40.4,48.3-5.7,1.1-9.7-2.2-5.8-13.5l35.8-107.5-25.8,5.1-29.9,89.3c-16,21.8-29.2,34.7-34.6,33.5-7-1.4-2.5-12.4-.3-18.5l32.8-97.8-25.8,5.1-26.5,78.1-1.3,2.2c-14.3,25.3-29,46-40.4,48.3-5.7,1.1-9.7-2.2-5.8-13.5l56.7-168.3-25.8,5.1-54.5,161c-7.1,21.3,4.1,37.3,24.9,33.2,12.8-2.5,25.1-13.5,36.4-28.1,1,12.6,9,19.1,20.8,16.7,14.1-2.8,27.4-18.9,37.5-33.3.3,14.4,10.7,23.7,27,20.4,15.3-3.1,30-18.3,43.1-37.4,4.4,15.8,19.8,24.8,40.5,20.7,29.3-5.8,53.7-34.4,70.1-63.5-3-3.4-7-5.9-11.5-7M434.1,85.4c9.8-28.5,36.9-29.5,26.9.3l-2.4,7.2c-8.2,23.6-24.9,26.4-35.3,24.8l10.8-32.3Z"/>
    <path id="Path_1824" class="st0" d="M1012.6,91.1l-1.3,2.3c-16.4,28.8-31.6,48.3-50.2,61.1l38.1-110.2-15.1,3c-4.1-13.7-17.9-22.2-32-19.4-13.9,2.8-31.1,17.5-38.2,38.6l-16.2,47.6h0l-1.3,2.3c-7.6,13.3-20.3,23-35.1,26.9l15.9-46.8c10.2-30.1-9.2-52.8-33.5-48-19.8,4-33.6,15-43.4,43.7l-8.2,24.6-7,20.2-1,1.8c-14.3,25.3-29,46-40.4,48.3-5.7,1.1-9.7-2.2-5.8-13.5l16.8-50.3c5.8-17.4-.2-25.7-10.7-34.2l-17.8-14.5c-4.6-3.4-5.5-9.8-2.2-14.3.2-.3.4-.6.7-.8l-16.3-12c-12,16.1-10.3,30.9,1.2,41l2.5,2.3c-14.5,31.8-42.8,93.1-57,118.6,3.4,3,7.3,5.4,11.5,7,9.7-17.2,35.9-71.9,56.8-116l4.4,3.8c4.4,3.4,6.1,9.1,4.4,14.3l-17.8,52.8c-7.1,21.3,4.1,37.3,24.9,33.2,15-3,29.3-17.5,42.1-36,6.5,32.9,53.5,30.1,74.4-10.7l5.7-1.1c9.8-2.4,19.1-6.8,27.1-13-2.5,17.4,8.4,29.4,26.7,25.7,8.7-2.4,16.6-7.1,22.8-13.6l-4.8,13.6c-32.6,17.6-51.6,36.1-47.7,55.4,4.9,24.8,43.9,22.4,56.2-13l12.8-37.9c25.3-13.8,48-37.2,69.7-75.8-3-3.4-7-5.9-11.5-7M855.2,90.8l-12.4,36-1.2.2c-8.4,1.7-13.8,10-12.1,18.4,0,0,0,0,0,0,.6,3.1,2.1,5.9,4.2,8.2v.5c-8.1,23.3-38.4,25.2-28.4-4.7l12.8-37.9,8.2-23.6c12-34.4,39.2-27.2,28.9,2.7M919,211.9c-3.5,10.8-12.5,11-13.9,4.1-1.3-6.7,3.4-15.6,21.4-27.2l-7.5,23.2ZM954.2,106.4c-10.6,28.2-23.8,43.4-34.7,45.6-5.7,1.1-9.7-2.2-5.8-13.5l23.4-69.9c9.1-26.8,37.9-26.1,29.9-.3l-12.8,38.1Z"/>
  </g>
  <g id="Group_3128">
    <g id="Mask_Group_87">
      <path id="Path_9724" class="st0" d="M139.1,313.1h20c2.6,0,5.1.3,7.6.9,1.9.5,3.8,1.5,5.3,2.7,1.4,1.2,2.5,2.7,3.1,4.4.7,1.8,1.1,3.8,1,5.8,0,1.9-.3,3.8-1,5.6-.7,1.7-1.7,3.2-3.1,4.5-1.5,1.3-3.3,2.3-5.3,2.9-2.5.8-5,1.1-7.6,1.1h-12.4v10.1h-7.7v-38h0ZM159.3,334.3c1.3,0,2.6-.2,3.8-.5,1-.3,1.9-.8,2.7-1.5.7-.6,1.3-1.4,1.7-2.3.4-1,.6-2,.5-3,.1-2-.7-3.9-2.2-5.3-1.5-1.3-3.6-1.9-6.6-1.9h-12.5v14.5h12.6ZM182.3,342c0-1.3.3-2.6.9-3.8s1.6-2.2,2.7-2.9c1.4-.9,2.9-1.5,4.5-1.9,2-.5,4.1-.7,6.3-.7s3.7,0,5.6.4c2,.3,4,.7,6,1.2,0-.9-.4-1.8-.8-2.5-.5-.8-1.2-1.5-2-2-.9-.6-1.9-1-3-1.3-1.3-.3-2.6-.5-4-.5h-2.7c-1,0-2,.2-3,.4s-2.1.4-3.1.7-1.9.6-2.8,1l-2.2-5.9c1.1-.4,2.2-.7,3.5-1.1,1.2-.3,2.5-.6,3.8-.8,1.3-.2,2.6-.4,3.9-.5,1.3-.1,2.5-.2,3.8-.2,5.4,0,9.3,1.4,11.9,4.1,2.6,2.7,3.9,6.9,3.9,12.6v12.5h-7.2v-2.7c-.8.5-1.6.9-2.4,1.2-.9.4-1.9.7-2.9,1-1.1.3-2.2.5-3.3.7-1.3.2-2.5.3-3.8.3-2,0-4-.2-5.9-.7-1.5-.4-3-1.1-4.2-2-1.1-.8-2-1.8-2.6-3s-.9-2.5-.9-3.8h0v.2h0ZM189.9,341.8c0,.5.1.9.4,1.3.3.5.7.9,1.2,1.1.6.4,1.3.6,2.1.8,1,.2,2,.3,3,.3s2.5,0,3.7-.3c1.1-.2,2.2-.5,3.3-.9,1-.3,1.9-.8,2.8-1.3.7-.4,1.4-.9,2.1-1.5v-1.3c-1.1-.3-2.2-.6-3.3-.8s-2.1-.4-3.1-.5-1.9-.2-2.8-.3h-2.3c-1.1,0-2.2,0-3.3.3-.8,0-1.5.4-2.2.7-.5.2-.9.6-1.2,1.1-.2.4-.3.8-.3,1.3h-.1,0ZM224.9,322.4h7.2v4.1c1.6-1.2,3.3-2.2,5-3.1,1.7-.8,3.4-1.5,5.3-2l2.1,6.6c-2.5.2-5,.8-7.3,1.9-2,.9-3.8,2.3-5.1,4.1v17h-7.2v-28.7h0ZM254.2,327.8h-6.9v-5.4h6.9v-8.9h7.2v8.9h6.9v5.4h-6.9v23.3h-7.2v-23.3ZM289.5,336.7c0-2,.4-4,1.2-5.8.8-1.8,2.1-3.4,3.6-4.7,1.7-1.4,3.6-2.5,5.6-3.2,4.8-1.6,10-1.6,14.8,0,2.1.7,4,1.8,5.6,3.2,1.5,1.3,2.7,2.9,3.6,4.7.8,1.8,1.3,3.8,1.2,5.8,0,2-.4,4-1.2,5.8-.8,1.8-2.1,3.4-3.6,4.7-1.7,1.4-3.6,2.5-5.6,3.2-4.8,1.6-10,1.6-14.8,0-2.1-.7-4-1.8-5.6-3.2-1.5-1.3-2.7-2.9-3.6-4.7-.8-1.8-1.3-3.8-1.2-5.8h0ZM297,336.7c0,1.1.2,2.2.7,3.3.5,1,1.2,2,2,2.7.9.8,2,1.5,3.2,1.9,2.8.9,5.9.9,8.7,0,1.2-.4,2.3-1,3.2-1.9.9-.8,1.5-1.7,2-2.7s.7-2.1.7-3.3c0-2.3-1-4.5-2.7-6-.9-.8-2-1.5-3.2-1.9-2.8-.9-5.9-.9-8.7,0-1.2.4-2.3,1-3.2,1.9-1.7,1.5-2.7,3.7-2.7,6h0ZM335.5,327.8h-4.9v-5.4h4.9c0-1.8.2-3.5.8-5.2.5-1.4,1.3-2.7,2.4-3.8,1.1-1.1,2.4-1.9,3.8-2.4,1.6-.6,3.3-.9,5.1-.8,1.3,0,2.6.1,3.9.4,1.2.2,2.3.6,3.4,1.1l-2.5,6c-.5-.3-1.1-.5-1.6-.6-.8-.2-1.5-.3-2.3-.3-1.5,0-2.9.4-4,1.4-1.1,1.1-1.7,2.7-1.6,4.3h9.1v5.4h-9.1v23.3h-7.2v-23.3h-.2q0-.1,0-.1ZM378.1,327.8h-6.9v-5.4h6.9v-8.9h7.2v8.9h6.9v5.4h-6.9v23.3h-7.2v-23.3ZM398.6,310.8h7.2v13.8c1.6-.9,3.3-1.5,5-2,1.9-.5,3.9-.7,5.8-.7s4.3.3,6.4,1c3.6,1.3,6.5,4.1,7.8,7.7.7,2,1.1,4.1,1.1,6.3v14.1h-7.2v-13.8c0-1.3-.2-2.5-.7-3.7-.4-1.1-1.1-2.1-1.9-2.9-.9-.8-1.9-1.5-3.1-1.9-1.3-.5-2.7-.7-4.1-.7s-3.5.3-5.1.9c-1.5.5-2.9,1.3-4.1,2.2v19.9h-7.2v-40.3h.1q0,.1,0,.1ZM438.6,336.6c0-1.9.4-3.8,1.2-5.6.8-1.8,2-3.4,3.4-4.7,1.6-1.4,3.5-2.5,5.5-3.3,4.8-1.6,10-1.6,14.8,0,2.1.7,4,1.9,5.6,3.4,1.5,1.4,2.7,3.1,3.5,5,.8,2,1.2,4.1,1.2,6.2v1.8h-27.1c.3.9.8,1.7,1.5,2.4s1.6,1.4,2.6,1.8c1.1.6,2.3,1,3.6,1.2,1.5.3,3,.4,4.5.4s3.3-.2,4.9-.5,3.2-.8,4.7-1.3l2.4,5.5c-.9.4-1.9.8-2.9,1.2-1,.3-2,.6-3,.8-1.1.2-2.2.4-3.3.5-1.1,0-2.3.2-3.6.2-2.9,0-5.7-.3-8.5-1.2-2.2-.7-4.3-1.7-6.1-3.2-1.6-1.3-2.8-2.9-3.7-4.7-.8-1.8-1.3-3.8-1.2-5.9h0ZM466.1,333.8c-.3-.8-.7-1.6-1.2-2.2-.6-.7-1.3-1.3-2-1.8-.9-.5-1.8-.9-2.8-1.2-1.1-.3-2.3-.4-3.5-.4s-2.5,0-3.7.5c-1,.3-2,.7-2.9,1.2-.8.5-1.5,1.1-2.1,1.8-.5.6-1,1.4-1.2,2.2h19.5-.1,0ZM511.8,313.1h8.2l18.4,37.9h-8.1l-3-6.4h-22.2l-2.9,6.4h-8.1l17.8-38h-.1s0,0,0,0h0ZM524.2,338.3l-8.2-17.2-8,17.2h16.2ZM539.4,322.4h8.3l7.5,17.2,1.9,4.8,1.9-4.8,7.5-17.2h8.3l-13.6,28.7h-8.3l-13.6-28.7h0ZM583.6,318.5c-.7,0-1.3,0-1.9-.3-.5-.2-1-.5-1.5-.8-.4-.3-.7-.7-.9-1.2s-.3-1-.3-1.5,0-1,.3-1.5.5-.9.9-1.2c.4-.4.9-.6,1.5-.8.6-.2,1.3-.3,1.9-.3s1.3,0,2,.3c.5.2,1,.5,1.5.8.4.3.7.7.9,1.2s.3,1,.3,1.5,0,1-.3,1.5-.5.9-.9,1.2c-.4.4-.9.6-1.5.8-.6.2-1.3.3-2,.3ZM580.1,322.4h7.2v28.7h-7.2v-28.7h0ZM594.2,336.8c0-2.1.4-4.2,1.3-6.2.8-1.8,2-3.4,3.6-4.7s3.4-2.4,5.4-3c2.2-.7,4.5-1.1,6.8-1.1s2.1,0,3.1.2c1,.1,2,.3,2.9.5s1.8.5,2.6.8,1.5.6,2.2,1v-13.7h7.2v40.3h-7.2v-2.7c-.7.5-1.5.9-2.2,1.2-.9.4-1.8.7-2.8,1s-2,.5-3.1.7c-1,.2-2.1.3-3.1.3-2.3,0-4.5-.3-6.7-1.1-1.9-.7-3.7-1.7-5.2-3s-2.6-2.9-3.4-4.6c-.8-1.9-1.2-3.9-1.2-6h-.2,0ZM601.8,336.8c0,1.1.2,2.2.7,3.3.5,1,1.1,1.9,2,2.7s2,1.4,3.1,1.8c1.3.5,2.7.7,4.1.7s2,0,2.9-.3c1-.2,1.9-.4,2.8-.8.9-.3,1.7-.7,2.5-1.2.7-.5,1.4-1,2.1-1.6v-9.9c-.7-.6-1.5-1.1-2.3-1.5s-1.6-.7-2.5-1c-.8-.3-1.7-.4-2.5-.6-.8,0-1.7-.2-2.5-.2-1.5,0-3,.2-4.4.7-1.2.4-2.3,1-3.3,1.8-.9.8-1.6,1.7-2,2.7-.5,1.1-.7,2.2-.7,3.4h0ZM638.2,310.8h7.2v40.3h-7.2v-40.3ZM658,354.6c.8.5,1.6.9,2.4,1.3.9.4,1.8.7,2.7.9,1,.2,1.9.4,2.9.5s2,.2,2.9.2c3.3,0,5.8-.7,7.6-2.1,1.8-1.4,2.7-3.5,2.7-6.4v-1c-.7.5-1.4.9-2.1,1.2-.8.4-1.7.7-2.5.9-.9.3-1.9.5-2.8.6-1,0-2,.2-3,.2-2,0-4-.3-5.9-1-1.7-.6-3.1-1.6-4.4-2.8-1.2-1.3-2.2-2.9-2.7-4.6-.7-2-1-4.1-.9-6.2v-14.1h7.2v12.1c0,3.5.7,6,2,7.7s3.4,2.5,6.3,2.5,3.6-.3,5.3-1.1c1.4-.6,2.7-1.5,3.7-2.7v-18.5h7.2v25.4c0,2.4-.3,4.8-1.2,7.1-.7,1.9-1.9,3.6-3.4,5-1.6,1.4-3.4,2.4-5.5,3-2.4.7-4.9,1-7.3,1s-5-.3-7.5-.8c-2.2-.5-4.3-1.3-6.4-2.3l2.7-6.1h0ZM710.6,331.7c0-2.6.5-5.1,1.5-7.5,1-2.3,2.5-4.4,4.4-6.1,2.1-1.8,4.5-3.2,7.1-4.1,3.1-1,6.4-1.5,9.7-1.5s2.6,0,3.9.2c1.3.1,2.6.4,3.9.6,1.3.3,2.5.7,3.8,1.1,1.2.4,2.4,1,3.5,1.6l-3.5,5.8c-.7-.4-1.5-.8-2.3-1.1-.9-.3-1.8-.6-2.7-.8-1-.2-2-.4-3-.5s-2.1-.2-3.1-.2c-2.2,0-4.3.3-6.4.9-1.7.5-3.4,1.4-4.8,2.5-1.3,1.1-2.3,2.4-3,3.9-.7,1.6-1,3.3-1,5s.3,3.5,1.1,5.2c.7,1.6,1.7,2.9,3,4.1,1.4,1.2,3,2.1,4.8,2.7,3.7,1.2,7.6,1.3,11.3.3,1.4-.4,2.8-1,4-1.8,1.1-.7,2-1.7,2.8-2.8.7-1.1,1.2-2.3,1.4-3.6h-13.3v-6.3h20.2c.4,1.9.5,3.8.4,5.7,0,1.8-.6,3.5-1.3,5.2-.7,1.6-1.6,3.1-2.8,4.5s-2.7,2.6-4.3,3.5c-1.8,1-3.7,1.8-5.7,2.3-2.3.6-4.6.8-7,.8s-6.4-.5-9.5-1.6c-2.6-.9-5-2.4-7.1-4.2-1.9-1.8-3.4-3.9-4.5-6.3-1-2.4-1.6-5.1-1.5-7.7h0v.2h0ZM762,322.4h7.2v4.1c1.6-1.2,3.3-2.2,5-3.1,1.7-.8,3.5-1.5,5.3-2l2.1,6.6c-2.5.2-5,.8-7.3,1.9-2,.9-3.8,2.3-5.1,4.1v17h-7.2v-28.7h0ZM785.2,336.7c0-2,.4-4,1.2-5.8s2.1-3.4,3.6-4.7c1.7-1.4,3.6-2.5,5.6-3.2,4.8-1.6,10-1.6,14.8,0,2.1.7,4,1.8,5.6,3.2,1.5,1.3,2.7,2.9,3.6,4.7.8,1.8,1.3,3.8,1.2,5.8,0,2-.4,4-1.2,5.8-.8,1.8-2.1,3.4-3.6,4.7-1.7,1.4-3.6,2.5-5.6,3.2-4.8,1.6-10,1.6-14.8,0-2.1-.7-4-1.8-5.6-3.2-1.5-1.3-2.7-2.9-3.6-4.7-.8-1.8-1.3-3.8-1.2-5.8h0ZM792.8,336.7c0,1.1.2,2.2.7,3.3.5,1,1.2,2,2,2.7.9.8,2,1.5,3.2,1.9,2.8.9,5.9.9,8.7,0,1.2-.4,2.3-1,3.2-1.9.9-.8,1.5-1.7,2-2.7s.7-2.1.7-3.3c0-2.3-1-4.5-2.7-6-.9-.8-2-1.5-3.2-1.9-2.8-.9-5.9-.9-8.7,0-1.2.4-2.3,1-3.2,1.9-1.7,1.5-2.7,3.7-2.7,6h0ZM828.1,322.4h7.2v14c0,1.2,0,2.4.4,3.6.3,1,.8,2,1.5,2.8.8.8,1.7,1.4,2.8,1.8,1.4.5,2.9.7,4.4.6.8,0,1.7,0,2.5-.3.8-.2,1.7-.4,2.4-.7.8-.3,1.5-.7,2.2-1.1.6-.4,1.2-.9,1.7-1.4v-19.3h7.2v28.7h-7.2v-2.5c-1.7,1-3.4,1.8-5.3,2.3-1.7.4-3.4.7-5.1.7s-4.6-.3-6.7-.9c-1.7-.5-3.3-1.5-4.6-2.8s-2.1-2.8-2.6-4.4c-.6-1.9-.9-4-.8-6v-15.1h0ZM876.6,362.8h-7.2v-40.4h7.2v2.7c.7-.5,1.5-.9,2.2-1.2.9-.4,1.8-.7,2.8-1s2-.5,3.1-.7c1-.2,2.1-.3,3.2-.3,2.3,0,4.5.3,6.7,1.1,1.9.7,3.7,1.7,5.2,3s2.6,2.9,3.4,4.6c.8,1.9,1.3,3.9,1.2,6,0,2.1-.4,4.2-1.3,6.2-.8,1.8-2,3.4-3.6,4.7s-3.4,2.4-5.4,3c-2.2.7-4.5,1.1-6.8,1.1s-2.1,0-3.1-.2c-1,0-2-.3-2.9-.5s-1.8-.5-2.6-.8-1.5-.6-2.2-1v13.8h0ZM876.6,342c.7.6,1.5,1.1,2.3,1.5.8.4,1.6.7,2.5,1,.8.3,1.7.4,2.5.6.8,0,1.7.2,2.5.2,1.5,0,3-.2,4.4-.7,1.2-.4,2.3-1,3.3-1.8.9-.8,1.6-1.7,2-2.7.5-1.1.7-2.2.7-3.4s-.2-2.2-.7-3.3c-.5-1-1.1-1.9-2-2.7s-2-1.4-3.1-1.8c-1.3-.5-2.7-.7-4.1-.7s-2,0-2.9.3c-1,.2-1.9.4-2.8.8-.9.3-1.7.7-2.5,1.2-.7.5-1.4,1-2.1,1.6v9.9h0Z"/>
    </g>
  </g>
</svg>